<?xml version="1.0" standalone="no"?>
<!DOCTYPE svg PUBLIC "-//W3C//DTD SVG 20010904//EN"
 "http://www.w3.org/TR/2001/REC-SVG-20010904/DTD/svg10.dtd">
<svg version="1.0" xmlns="http://www.w3.org/2000/svg"
 width="248.000000pt" height="248.000000pt" viewBox="0 0 248.000000 248.000000"
 preserveAspectRatio="xMidYMid meet">
<metadata>
Created by potrace 1.14, written by Peter Selinger 2001-2017
</metadata>
<g transform="translate(0.000000,248.000000) scale(0.100000,-0.100000)"
fill="#000000" stroke="none">
<path d="M297 2460 c-2 -8 -2 -60 -1 -115 2 -55 6 -248 9 -430 9 -445 9 -450
46 -645 80 -421 220 -701 480 -959 148 -146 379 -308 421 -296 27 8 225 139
282 187 87 72 246 242 309 330 156 218 267 524 312 863 2 22 7 58 10 80 6 44
11 228 20 688 6 291 5 307 -12 308 -10 0 -435 1 -945 2 -817 2 -927 0 -931
-13z"/>
</g>
</svg>
